<?xml version="1.0" standalone="no"?>
<!DOCTYPE svg PUBLIC "-//W3C//DTD SVG 20010904//EN"
 "http://www.w3.org/TR/2001/REC-SVG-20010904/DTD/svg10.dtd">
<svg version="1.0" xmlns="http://www.w3.org/2000/svg"
 width="260.000000pt" height="260.000000pt" viewBox="0 0 260.000000 260.000000"
 preserveAspectRatio="xMidYMid meet">
<metadata>
Created by potrace 1.14, written by Peter Selinger 2001-2017
</metadata>
<g transform="translate(0.000000,260.000000) scale(0.100000,-0.100000)"
fill="#000000" stroke="none">
<path d="M0 1300 l0 -1300 1300 0 1300 0 0 1300 0 1300 -1300 0 -1300 0 0
-1300z m1564 1044 c4 -13 0 -29 -11 -43 l-18 -22 -1 23 c-1 13 -7 42 -13 66
-6 24 -8 48 -5 54 7 11 35 -35 48 -78z m102 4 c-6 -57 -5 -57 34 -91 37 -31
40 -38 40 -84 0 -57 17 -79 54 -69 33 8 38 29 25 95 -10 48 -10 61 5 89 23 44
38 41 30 -6 -4 -27 -1 -49 11 -72 11 -22 17 -55 16 -98 -1 -83 15 -112 64
-112 46 0 58 24 49 96 -5 42 -3 60 11 80 9 14 17 41 18 60 2 39 4 40 35 18 27
-19 28 -52 3 -100 -22 -41 -17 -67 24 -116 17 -20 25 -42 25 -68 0 -41 18 -64
44 -54 19 7 20 32 5 85 -11 36 -10 40 20 74 17 20 31 41 31 48 0 7 5 4 10 -5
7 -12 6 -30 -5 -60 -21 -62 -19 -88 14 -140 44 -69 45 -82 17 -131 -14 -24
-26 -48 -26 -54 0 -5 13 -30 30 -54 36 -53 38 -76 8 -81 -38 -5 -33 -39 13
-97 35 -44 43 -63 47 -106 3 -35 -1 -62 -12 -83 -20 -39 -24 -40 -19 -4 6 37
-17 66 -45 58 -28 -9 -38 -48 -23 -96 16 -55 14 -103 -9 -167 -25 -72 -25 -98
0 -123 23 -23 20 -25 -43 -34 -63 -10 -93 -43 -108 -118 -15 -76 -38 -110
-102 -151 -73 -47 -100 -83 -92 -122 13 -57 12 -58 -44 -72 -66 -17 -91 -36
-148 -112 -24 -32 -58 -66 -76 -74 -30 -15 -32 -15 -39 4 -4 10 -12 19 -18 19
-6 0 -46 -35 -88 -79 -82 -83 -113 -99 -174 -86 -70 15 -181 84 -282 172 -37
33 -56 43 -82 43 -30 0 -35 -4 -40 -30 -8 -35 -19 -38 -35 -9 -7 14 -9 44 -4
85 4 42 2 70 -6 86 -26 49 -53 50 -109 3 -49 -41 -70 -46 -42 -10 48 60 36
119 -42 206 -41 46 -72 100 -100 171 -25 63 -86 76 -106 23 -7 -19 -5 -38 10
-78 31 -80 26 -98 -12 -47 -50 66 -58 82 -58 126 0 27 9 55 29 86 41 65 47
102 21 128 -14 14 -28 19 -41 15 -23 -8 -24 6 -4 45 30 57 20 126 -20 136 -31
8 -44 -1 -61 -40 l-13 -31 0 45 c0 25 10 71 24 105 36 88 33 130 -13 196 -22
30 -42 69 -45 88 -8 37 7 106 25 117 7 5 9 -1 4 -19 -15 -60 45 -110 85 -70
20 19 22 35 19 129 -3 64 9 86 76 150 58 54 67 85 39 134 -8 14 -14 34 -15 44
0 15 8 11 35 -20 31 -35 34 -45 35 -98 0 -66 18 -96 55 -96 12 0 30 9 40 20
17 18 18 27 8 73 -10 46 -9 56 9 85 15 25 18 42 14 70 -18 104 -18 107 9 157
l27 50 -7 -71 -7 -72 36 -33 c44 -40 45 -63 5 -117 -36 -49 -34 -86 6 -104 49
-22 117 31 132 103 6 32 6 32 15 8 5 -13 7 -45 3 -72 -7 -56 7 -87 39 -87 30
0 37 17 29 80 -4 34 -2 55 7 65 11 14 16 6 37 -51 13 -38 23 -91 23 -121 0
-102 82 -132 100 -37 8 38 8 38 9 -14 1 -58 26 -145 45 -161 9 -7 19 -5 35 6
21 14 23 21 18 77 -4 48 -1 71 15 109 18 41 19 53 9 86 -18 60 -13 69 15 26
22 -36 24 -46 18 -112 -3 -40 -3 -84 0 -97 12 -49 83 -59 106 -15 9 15 8 33
-1 69 -12 47 -11 50 14 84 30 38 35 90 16 144 -6 17 -9 39 -7 48 2 13 10 8 33
-22 25 -33 31 -50 35 -113 5 -81 23 -107 58 -85 14 9 17 25 15 78 l-1 66 20
-25 c23 -30 58 -32 83 -5 26 29 21 73 -14 123 -43 63 -48 106 -21 169 12 28
20 64 18 79 -4 24 -2 27 10 17 11 -10 13 -26 8 -70z m-866 -50 c-26 -59 -39
-25 -14 36 16 38 20 42 26 26 4 -12 0 -36 -12 -62z m1172 7 c-3 -38 -6 -44
-18 -34 -8 6 -14 17 -14 23 0 10 27 56 33 56 1 0 1 -20 -1 -45z m-1394 -64
c-4 -31 -23 -38 -24 -8 -1 12 -5 33 -9 47 l-8 25 22 -19 c14 -13 21 -29 19
-45z m536 37 c21 -29 20 -82 -1 -114 -12 -18 -16 -45 -15 -92 1 -63 1 -65 -12
-37 -39 90 -40 103 -10 148 24 37 26 45 17 79 -11 43 -2 49 21 16z"/>
<path d="M1756 1942 c-9 -11 -27 -47 -41 -82 -26 -67 -39 -86 -66 -101 -17 -8
-18 -6 -13 20 5 22 2 32 -13 40 -48 25 -88 -18 -100 -106 -7 -61 -27 -100 -54
-108 -27 -9 -33 -1 -18 23 16 25 4 69 -22 77 -31 10 -46 -10 -52 -70 -5 -46
-13 -64 -47 -105 -53 -64 -56 -99 -12 -165 40 -61 51 -111 28 -133 -15 -15
-16 -14 -16 12 0 22 -14 42 -55 82 l-55 54 0 88 c0 96 -7 112 -51 112 -54 0
-80 -61 -54 -124 12 -28 -17 -15 -32 15 -9 17 -11 52 -7 114 6 83 4 92 -16
113 -27 28 -60 25 -76 -6 -16 -32 -25 -13 -23 43 4 60 -16 82 -50 59 -21 -15
-23 -22 -18 -73 4 -37 1 -66 -8 -86 -10 -24 -14 -26 -14 -10 -1 11 -13 45 -27
75 -22 47 -25 63 -19 115 5 52 3 63 -13 78 -24 22 -41 15 -70 -27 -22 -33 -23
-36 -7 -65 15 -30 15 -31 -7 -31 -13 0 -36 7 -52 15 -55 29 -96 9 -96 -46 0
-24 6 -33 31 -43 32 -13 32 -13 -31 -18 -55 -4 -66 -8 -91 -36 -38 -43 -38
-88 1 -170 32 -68 40 -113 17 -94 -29 24 -77 -16 -77 -63 0 -25 48 -71 89 -85
l40 -13 -19 -25 c-38 -48 -14 -149 43 -182 23 -13 28 -13 47 5 20 18 21 26 15
70 -11 72 -10 105 5 118 10 10 11 6 6 -19 -5 -23 1 -46 28 -100 41 -79 44
-119 16 -174 -34 -67 -25 -120 21 -120 28 0 29 2 29 43 0 24 7 52 15 63 13 18
14 17 15 -19 0 -21 7 -54 15 -75 9 -20 18 -70 20 -110 6 -103 44 -144 81 -87
14 22 15 33 4 88 -12 59 -11 66 11 112 l23 50 6 -80 c5 -60 14 -93 34 -130 24
-44 26 -56 19 -105 -13 -100 3 -150 48 -150 51 0 62 31 33 94 -12 23 -14 43
-9 62 7 24 9 26 13 9 2 -10 20 -42 38 -69 27 -41 34 -61 34 -101 0 -58 10 -78
36 -73 27 5 29 49 5 97 -26 50 -26 74 -1 130 27 59 25 89 -10 135 -41 54 -38
62 13 25 71 -52 82 -91 47 -179 -23 -58 -18 -96 12 -106 32 -10 51 17 41 57
-5 19 -7 45 -4 58 5 20 9 15 24 -33 19 -58 17 -66 -15 -102 -26 -30 -21 -78 9
-82 38 -6 64 18 95 86 17 37 41 82 55 100 19 25 24 42 21 69 -4 31 -3 33 9 17
16 -22 16 -24 -2 -95 -11 -43 -13 -65 -5 -78 14 -27 44 -35 70 -19 33 21 41
71 25 148 -15 71 -8 127 19 149 11 9 13 3 13 -31 0 -33 6 -47 27 -65 68 -58
126 -1 126 125 0 23 5 42 10 42 6 0 10 -6 10 -13 0 -19 33 -47 54 -47 9 0 28
11 42 26 30 29 28 57 -7 152 -25 69 -24 89 7 148 14 27 34 71 44 98 l18 49 7
-32 c5 -23 -1 -52 -21 -107 -31 -87 -26 -129 19 -154 25 -14 28 -13 54 12 26
27 27 31 29 150 2 68 7 148 11 178 l9 55 13 -30 c7 -18 10 -48 7 -72 -7 -52
11 -57 51 -17 22 22 25 31 19 67 -20 145 -20 136 7 165 53 56 54 120 2 144
-19 8 -23 16 -19 34 7 27 -10 60 -46 91 -15 12 -33 36 -40 53 -11 26 -9 35 14
80 30 57 32 77 10 108 -20 29 -69 30 -84 1 -13 -23 -6 -69 10 -69 6 0 10 -4
10 -10 0 -5 -11 -10 -24 -10 -26 0 -86 44 -86 64 0 6 -11 28 -25 49 -21 30
-32 37 -59 37 -19 0 -40 -8 -50 -18z"/>
</g>
</svg>
